<svg xmlns="http://www.w3.org/2000/svg" style="display: none;">
  <!-- Feature Icons -->
  <symbol id="icon-lightbulb" viewBox="0 0 24 24">
    <path d="M9 18h6" stroke="currentColor" stroke-width="1.5" fill="none"/>
    <path d="M10 22h4" stroke="currentColor" stroke-width="1.5" fill="none"/>
    <path d="M12 2v1" stroke="currentColor" stroke-width="1.5" fill="none"/>
    <path d="M12 18v-2.5" stroke="currentColor" stroke-width="1.5" fill="none"/>
    <path d="M12 15.5a5.5 5.5 0 1 0-4-8.5" stroke="currentColor" stroke-width="1.5" fill="none"/>
  </symbol>

  <symbol id="icon-flask" viewBox="0 0 24 24">
    <path d="M10 2v7.31" stroke="currentColor" stroke-width="1.5" fill="none"/>
    <path d="M14 2v7.31" stroke="currentColor" stroke-width="1.5" fill="none"/>
    <path d="M8.5 2h7" stroke="currentColor" stroke-width="1.5" fill="none"/>
    <path d="M14 9.3a6.5 6.5 0 1 1-4 0" stroke="currentColor" stroke-width="1.5" fill="none"/>
    <path d="M5.3 21h13.4" stroke="currentColor" stroke-width="1.5" fill="none"/>
  </symbol>

  <symbol id="icon-blocks" viewBox="0 0 24 24">
    <path d="M21 16V8a2 2 0 0 0-1-1.73l-7-4a2 2 0 0 0-2 0l-7 4A2 2 0 0 0 3 8v8a2 2 0 0 0 1 1.73l7 4a2 2 0 0 0 2 0l7-4A2 2 0 0 0 21 16z" stroke="currentColor" stroke-width="1.5" fill="none"/>
    <polyline points="3.27 6.96 12 12.01 20.73 6.96" stroke="currentColor" stroke-width="1.5" fill="none"/>
    <line x1="12" y1="22.08" x2="12" y2="12" stroke="currentColor" stroke-width="1.5"/>
  </symbol>

  <symbol id="icon-zap" viewBox="0 0 24 24">
    <polygon points="13 2 3 14 12 14 11 22 21 10 12 10 13 2" stroke="currentColor" stroke-width="1.5" fill="none"/>
  </symbol>

  <!-- Learning Path Icons -->
  <symbol id="icon-book" viewBox="0 0 24 24">
    <path d="M4 19.5A2.5 2.5 0 0 1 6.5 17H20" stroke="currentColor" stroke-width="1.5" fill="none"/>
    <path d="M6.5 2H20v20H6.5A2.5 2.5 0 0 1 4 19.5v-15A2.5 2.5 0 0 1 6.5 2z" stroke="currentColor" stroke-width="1.5" fill="none"/>
  </symbol>

  <symbol id="icon-graduation" viewBox="0 0 24 24">
    <path d="M22 10v6M2 10l10-5 10 5-10 5z" stroke="currentColor" stroke-width="1.5" fill="none"/>
    <path d="M6 12v5c3 3 9 3 12 0v-5" stroke="currentColor" stroke-width="1.5" fill="none"/>
  </symbol>

  <!-- Module Icons -->
  <symbol id="icon-waves" viewBox="0 0 24 24">
    <path d="M2 12s3-7 10-7 10 7 10 7-3 7-10 7-10-7-10-7Z" stroke="currentColor" stroke-width="1.5" fill="none"/>
    <circle cx="12" cy="12" r="3" stroke="currentColor" stroke-width="1.5" fill="none"/>
  </symbol>

  <symbol id="icon-compass" viewBox="0 0 24 24">
    <circle cx="12" cy="12" r="10" stroke="currentColor" stroke-width="1.5" fill="none"/>
    <polygon points="16.24 7.76 14.12 14.12 7.76 16.24 9.88 9.88 16.24 7.76" stroke="currentColor" stroke-width="1.5" fill="none"/>
  </symbol>

  <symbol id="icon-eye" viewBox="0 0 24 24">
    <path d="M2 12s3-7 10-7 10 7 10 7-3 7-10 7-10-7-10-7Z" stroke="currentColor" stroke-width="1.5" fill="none"/>
    <circle cx="12" cy="12" r="3" stroke="currentColor" stroke-width="1.5" fill="none"/>
  </symbol>

  <symbol id="icon-layers" viewBox="0 0 24 24">
    <polygon points="12 2 2 7 12 12 22 7 12 2" stroke="currentColor" stroke-width="1.5" fill="none"/>
    <polyline points="2 17 12 22 22 17" stroke="currentColor" stroke-width="1.5" fill="none"/>
    <polyline points="2 12 12 17 22 12" stroke="currentColor" stroke-width="1.5" fill="none"/>
  </symbol>

  <symbol id="icon-link" viewBox="0 0 24 24">
    <path d="M10 13a5 5 0 0 0 7.54.54l3-3a5 5 0 0 0-7.07-7.07l-1.72 1.71" stroke="currentColor" stroke-width="1.5" fill="none"/>
    <path d="M14 11a5 5 0 0 0-7.54-.54l-3 3a5 5 0 0 0 7.07 7.07l1.71-1.71" stroke="currentColor" stroke-width="1.5" fill="none"/>
  </symbol>

  <symbol id="icon-box" viewBox="0 0 24 24">
    <path d="M21 16V8a2 2 0 0 0-1-1.73l-7-4a2 2 0 0 0-2 0l-7 4A2 2 0 0 0 3 8v8a2 2 0 0 0 1 1.73l7 4a2 2 0 0 0 2 0l7-4A2 2 0 0 0 21 16z" stroke="currentColor" stroke-width="1.5" fill="none"/>
    <polyline points="3.27 6.96 12 12.01 20.73 6.96" stroke="currentColor" stroke-width="1.5" fill="none"/>
    <line x1="12" y1="22.08" x2="12" y2="12" stroke="currentColor" stroke-width="1.5"/>
  </symbol>

  <!-- Status Icons -->
  <symbol id="icon-check" viewBox="0 0 24 24">
    <polyline points="20 6 9 17 4 12" stroke="currentColor" stroke-width="2.5" fill="none"/>
  </symbol>

  <symbol id="icon-clock" viewBox="0 0 24 24">
    <circle cx="12" cy="12" r="10" stroke="currentColor" stroke-width="2" fill="none"/>
    <polyline points="12 6 12 12 16 14" stroke="currentColor" stroke-width="2" fill="none"/>
  </symbol>

  <symbol id="icon-lock" viewBox="0 0 24 24">
    <rect x="3" y="11" width="18" height="11" rx="2" ry="2" stroke="currentColor" stroke-width="2" fill="none"/>
    <path d="M7 11V7a5 5 0 0 1 10 0v4" stroke="currentColor" stroke-width="2" fill="none"/>
  </symbol>

  <symbol id="icon-arrow-right" viewBox="0 0 24 24">
    <line x1="5" y1="12" x2="19" y2="12" stroke="currentColor" stroke-width="2" fill="none"/>
    <polyline points="12 5 19 12 12 19" stroke="currentColor" stroke-width="2" fill="none"/>
  </symbol>

  <symbol id="icon-chevron-right" viewBox="0 0 24 24">
    <polyline points="9 18 15 12 9 6" stroke="currentColor" stroke-width="2" fill="none"/>
  </symbol>

  <!-- Tier Icons -->
  <symbol id="icon-grid" viewBox="0 0 24 24">
    <rect x="3" y="3" width="7" height="7" stroke="currentColor" stroke-width="2" fill="none"/>
    <rect x="14" y="3" width="7" height="7" stroke="currentColor" stroke-width="2" fill="none"/>
    <rect x="14" y="14" width="7" height="7" stroke="currentColor" stroke-width="2" fill="none"/>
    <rect x="3" y="14" width="7" height="7" stroke="currentColor" stroke-width="2" fill="none"/>
  </symbol>

  <symbol id="icon-layers-alt" viewBox="0 0 24 24">
    <path d="M12 2L2 7l10 5 10-5-10-5z" stroke="currentColor" stroke-width="2" fill="none"/>
    <path d="M2 17l10 5 10-5" stroke="currentColor" stroke-width="2" fill="none"/>
    <path d="M2 12l10 5 10-5" stroke="currentColor" stroke-width="2" fill="none"/>
  </symbol>

  <!-- Tool Icons -->
  <symbol id="icon-tool" viewBox="0 0 24 24">
    <path d="M14.7 6.3a1 1 0 0 0 0 1.4l1.6 1.6a1 1 0 0 0 1.4 0l3.77-3.77a6 6 0 0 1-7.94 7.94l-6.91 6.91a2.12 2.12 0 0 1-3-3l6.91-6.91a6 6 0 0 1 7.94-7.94l-3.76 3.76z" stroke="currentColor" stroke-width="1.5" fill="none"/>
  </symbol>
</svg>
